# xmcd CD database file
#
# Track frame offsets:
#	150
#	15664
#	29985
#	44383
#	58544
#	75903
#	88412
#	101191
#	111936
#	124669
#	139470
#	153543
#	164733
#	178302
#	192167
#	203580
#	217104
#	230507
#	244189
#	255708
#
# Disc length: 3661 seconds
#
# Revision: 2
# Processed by: cddbd v1.5.2PL0 Copyright (c) Steve Scherf et al.
# Submitted via: CDex 1.70beta2
#
DISCID=2e0e4b14
DTITLE=The Big Band Woogie Boogie - The Ultimate Jazz Archive Set 17
DYEAR=2005
DGENRE=Jazz
TTITLE0=Artie Shaw And His Orchestra - Meade Lux Special
TTITLE1=Tommy Dorsey And His Orchestra - Boogie Woogie
TTITLE2=Bob Crosby And His Orchestra - Honky Tonky Train Blues
TTITLE3=Woody Herman And His Orchestra - Indian Boogie Woogie
TTITLE4=Benny Goodman And His Orchestra - Albert Ammons - Meade Lux Lewis - Roll 'Em
TTITLE5=Harry James And His Orchestra - Back Beat Boogie
TTITLE6=Bob Zurke And His Delta Rhythm Band - Cow Cow Blues
TTITLE7=Count Basie - Basie Boogie
TTITLE8=Earl Hines And His Orchestra - Boogie Woogie On The St. Louis Blues
TTITLE9=Charlie Barnet And His Orchestra - Scrub Me Mama With A Boogie Beat
TTITLE10=Gene Krupa And His Orchestra - Drum Boogie
TTITLE11=Count Basie Orchestra - Basie Boogie
TTITLE12=Lionel Hampton - Hamp's Boogie Woogie
TTITLE13=Jack Teagarden And His Orchestra - Boogie Woogie
TTITLE14=Count Basie - Wild Bill's Boogie
TTITLE15=Lionel Hampton - Hamp's Walking Boogie
TTITLE16=Lionel Hampton And His Orchestra - Hamp's Boogie Woogie No. 2
TTITLE17=Gene Krupa And His Swinging Big Band - Gene's Boogie
TTITLE18=Count Basie - Hob Nail Boogie
TTITLE19=Woody Herman And His Orchestra - Pinetop's Blues
EXTD=YEAR: 2005
EXTT0=
EXTT1=
EXTT2=
EXTT3=
EXTT4=
EXTT5=
EXTT6=
EXTT7=
EXTT8=
EXTT9=
EXTT10=
EXTT11=
EXTT12=
EXTT13=
EXTT14=
EXTT15=
EXTT16=
EXTT17=
EXTT18=
EXTT19=
PLAYORDER=
